<?xml version="1.0" encoding="UTF-8" ?>
<!DOCTYPE score-partwise PUBLIC '-//Recordare//DTD MusicXML 2.0 Partwise//EN' 'http://www.musicxml.org/dtds/2.0/partwise.dtd'>
<score-partwise version="2.0">
 <work>
  <work-title>Lua Brilhante (Valsa em 3 cores)</work-title>
 </work>
 <identification>
  <creator type="arranger">Bru Cardoso</creator>
  <encoding>
   <encoding-date>2025-10-08</encoding-date>
   <software>Guitar Pro 7.5.5</software>
   <supports element="print" type="yes" attribute="new-system" value="yes"/>
  </encoding>
 </identification>
 <defaults>
  <scaling>
   <millimeters>6.4</millimeters>
   <tenths>40</tenths>
  </scaling>
  <page-layout>
   <page-height>1850</page-height>
   <page-width>1310</page-width>
  </page-layout>
 </defaults>
 <credit>
  <credit-words valign="top" justify="center" font-size="24">Lua Brilhante (Valsa em 3 cores)</credit-words>
 </credit>
 <credit>
  <credit-words valign="top" justify="center" font-size="14">Baixo (*Seção A)</credit-words>
 </credit>
 <credit>
  <credit-words valign="bottom" justify="right" font-size="12">Bru Cardoso</credit-words>
 </credit>
 <part-list>
  <score-part id="P1">
   <part-name>Ample Bass P Lite II</part-name>
   <part-abbreviation>Baixo</part-abbreviation>
   <midi-instrument id="P1">
    <midi-channel>1</midi-channel>
    <midi-bank>1</midi-bank>
    <midi-program>34</midi-program>
    <volume>80</volume>
    <pan>0</pan>
   </midi-instrument>
  </score-part>
 </part-list>
 <part id="P1">
  <measure number="1">
   <attributes>
    <divisions>1</divisions>
    <key>
     <fifths>3</fifths>
     <mode>major</mode>
    </key>
    <time>
     <beats>3</beats>
     <beat-type>4</beat-type>
    </time>
    <clef number="1">
     <sign>F</sign>
     <line>4</line>
    </clef>
    <staff-details number="1">
     <staff-tuning line="1">
      <tuning-step>E</tuning-step>
      <tuning-octave>1</tuning-octave>
     </staff-tuning>
     <staff-tuning line="2">
      <tuning-step>A</tuning-step>
      <tuning-octave>1</tuning-octave>
     </staff-tuning>
     <staff-tuning line="3">
      <tuning-step>D</tuning-step>
      <tuning-octave>2</tuning-octave>
     </staff-tuning>
     <staff-tuning line="4">
      <tuning-step>G</tuning-step>
      <tuning-octave>2</tuning-octave>
     </staff-tuning>
    </staff-details>
    <transpose number="1">
     <diatonic>0</diatonic>
     <chromatic>0</chromatic>
     <octave-change>-1</octave-change>
    </transpose>
   </attributes>
   <direction>
    <direction-type>
     <rehearsal>Intro</rehearsal>
    </direction-type>
   </direction>
   <note>
    <rest/>
    <duration>3</duration>
    <voice>1</voice>
    <type>half</type>
    <dot/>
   </note>
   <barline location="left">
    <repeat times="37" direction="forward"/>
   </barline>
  </measure>
  <measure number="2">
   <note>
    <rest/>
    <duration>3</duration>
    <voice>1</voice>
    <type>half</type>
    <dot/>
   </note>
  </measure>
  <measure number="3">
   <note>
    <rest/>
    <duration>3</duration>
    <voice>1</voice>
    <type>half</type>
    <dot/>
   </note>
  </measure>
  <measure number="4">
   <note>
    <rest/>
    <duration>3</duration>
    <voice>1</voice>
    <type>half</type>
    <dot/>
   </note>
  </measure>
  <measure number="5">
   <note>
    <rest/>
    <duration>3</duration>
    <voice>1</voice>
    <type>half</type>
    <dot/>
   </note>
  </measure>
  <measure number="6">
   <print new-system="yes"/>
   <direction>
    <direction-type>
     <rehearsal enclosure="rectangle">A</rehearsal>
    </direction-type>
   </direction>
   <note>
    <rest/>
    <duration>3</duration>
    <voice>1</voice>
    <type>half</type>
    <dot/>
   </note>
  </measure>
  <measure number="7">
   <note>
    <rest/>
    <duration>3</duration>
    <voice>1</voice>
    <type>half</type>
    <dot/>
   </note>
  </measure>
  <measure number="8">
   <note>
    <rest/>
    <duration>3</duration>
    <voice>1</voice>
    <type>half</type>
    <dot/>
   </note>
  </measure>
  <measure number="9">
   <note>
    <rest/>
    <duration>3</duration>
    <voice>1</voice>
    <type>half</type>
    <dot/>
   </note>
  </measure>
  <measure number="10">
   <note>
    <rest/>
    <duration>3</duration>
    <voice>1</voice>
    <type>half</type>
    <dot/>
   </note>
  </measure>
  <measure number="11">
   <note>
    <rest/>
    <duration>3</duration>
    <voice>1</voice>
    <type>half</type>
    <dot/>
   </note>
  </measure>
  <measure number="12">
   <note>
    <rest/>
    <duration>3</duration>
    <voice>1</voice>
    <type>half</type>
    <dot/>
   </note>
  </measure>
  <measure number="13">
   <note>
    <rest/>
    <duration>3</duration>
    <voice>1</voice>
    <type>half</type>
    <dot/>
   </note>
  </measure>
  <measure number="14">
   <print new-system="yes"/>
   <direction>
    <direction-type>
     <rehearsal></rehearsal>
    </direction-type>
   </direction>
   <note>
    <rest/>
    <duration>3</duration>
    <voice>1</voice>
    <type>half</type>
    <dot/>
   </note>
  </measure>
  <measure number="15">
   <note>
    <rest/>
    <duration>3</duration>
    <voice>1</voice>
    <type>half</type>
    <dot/>
   </note>
  </measure>
  <measure number="16">
   <note>
    <rest/>
    <duration>3</duration>
    <voice>1</voice>
    <type>half</type>
    <dot/>
   </note>
  </measure>
  <measure number="17">
   <note>
    <rest/>
    <duration>3</duration>
    <voice>1</voice>
    <type>half</type>
    <dot/>
   </note>
  </measure>
  <measure number="18">
   <note>
    <rest/>
    <duration>3</duration>
    <voice>1</voice>
    <type>half</type>
    <dot/>
   </note>
  </measure>
  <measure number="19">
   <note>
    <rest/>
    <duration>3</duration>
    <voice>1</voice>
    <type>half</type>
    <dot/>
   </note>
  </measure>
  <measure number="20">
   <note>
    <rest/>
    <duration>3</duration>
    <voice>1</voice>
    <type>half</type>
    <dot/>
   </note>
  </measure>
  <measure number="21">
   <note>
    <rest/>
    <duration>3</duration>
    <voice>1</voice>
    <type>half</type>
    <dot/>
   </note>
  </measure>
  <measure number="22">
   <print new-system="yes"/>
   <note>
    <rest/>
    <duration>3</duration>
    <voice>1</voice>
    <type>half</type>
    <dot/>
   </note>
  </measure>
  <measure number="23">
   <note>
    <rest/>
    <duration>3</duration>
    <voice>1</voice>
    <type>half</type>
    <dot/>
   </note>
  </measure>
  <measure number="24">
   <note>
    <rest/>
    <duration>3</duration>
    <voice>1</voice>
    <type>half</type>
    <dot/>
   </note>
  </measure>
  <measure number="25">
   <note>
    <rest/>
    <duration>3</duration>
    <voice>1</voice>
    <type>half</type>
    <dot/>
   </note>
  </measure>
  <measure number="26">
   <note>
    <rest/>
    <duration>3</duration>
    <voice>1</voice>
    <type>half</type>
    <dot/>
   </note>
  </measure>
  <measure number="27">
   <note>
    <rest/>
    <duration>3</duration>
    <voice>1</voice>
    <type>half</type>
    <dot/>
   </note>
  </measure>
  <measure number="28">
   <note>
    <rest/>
    <duration>3</duration>
    <voice>1</voice>
    <type>half</type>
    <dot/>
   </note>
  </measure>
  <measure number="29">
   <note>
    <rest/>
    <duration>3</duration>
    <voice>1</voice>
    <type>half</type>
    <dot/>
   </note>
  </measure>
  <measure number="30">
   <print new-system="yes"/>
   <note>
    <rest/>
    <duration>3</duration>
    <voice>1</voice>
    <type>half</type>
    <dot/>
   </note>
  </measure>
  <measure number="31">
   <note>
    <rest/>
    <duration>3</duration>
    <voice>1</voice>
    <type>half</type>
    <dot/>
   </note>
  </measure>
  <measure number="32">
   <note>
    <rest/>
    <duration>3</duration>
    <voice>1</voice>
    <type>half</type>
    <dot/>
   </note>
  </measure>
  <measure number="33">
   <note>
    <rest/>
    <duration>3</duration>
    <voice>1</voice>
    <type>half</type>
    <dot/>
   </note>
  </measure>
  <measure number="34">
   <note>
    <rest/>
    <duration>3</duration>
    <voice>1</voice>
    <type>half</type>
    <dot/>
   </note>
  </measure>
  <measure number="35">
   <note>
    <rest/>
    <duration>3</duration>
    <voice>1</voice>
    <type>half</type>
    <dot/>
   </note>
  </measure>
  <measure number="36">
   <note>
    <rest/>
    <duration>3</duration>
    <voice>1</voice>
    <type>half</type>
    <dot/>
   </note>
  </measure>
  <measure number="37">
   <note>
    <rest/>
    <duration>3</duration>
    <voice>1</voice>
    <type>half</type>
    <dot/>
   </note>
  </measure>
  <measure number="38">
   <print new-system="yes"/>
   <note>
    <pitch>
     <step>A</step>
     <octave>2</octave>
    </pitch>
    <duration>2</duration>
    <voice>1</voice>
    <type>half</type>
    <stem>up</stem>
    <notehead>normal</notehead>
   </note>
   <note>
    <rest/>
    <duration>1</duration>
    <voice>1</voice>
    <type>quarter</type>
   </note>
  </measure>
  <measure number="39">
   <note>
    <pitch>
     <step>E</step>
     <octave>2</octave>
    </pitch>
    <duration>1</duration>
    <voice>1</voice>
    <type>quarter</type>
    <stem>up</stem>
    <notehead>normal</notehead>
   </note>
   <note>
    <rest/>
    <duration>2</duration>
    <voice>1</voice>
    <type>half</type>
   </note>
  </measure>
  <measure number="40">
   <note>
    <pitch>
     <step>B</step>
     <octave>2</octave>
    </pitch>
    <duration>2</duration>
    <voice>1</voice>
    <type>half</type>
    <stem>up</stem>
    <notehead>normal</notehead>
   </note>
   <note>
    <rest/>
    <duration>1</duration>
    <voice>1</voice>
    <type>quarter</type>
   </note>
  </measure>
  <measure number="41">
   <note>
    <pitch>
     <step>G</step>
     <alter>1</alter>
     <octave>2</octave>
    </pitch>
    <duration>1</duration>
    <voice>1</voice>
    <type>quarter</type>
    <stem>up</stem>
    <notehead>normal</notehead>
   </note>
   <note>
    <rest/>
    <duration>2</duration>
    <voice>1</voice>
    <type>half</type>
   </note>
  </measure>
  <measure number="42">
   <note>
    <pitch>
     <step>F</step>
     <octave>2</octave>
    </pitch>
    <duration>1</duration>
    <voice>1</voice>
    <type>quarter</type>
    <accidental>natural</accidental>
    <stem>up</stem>
    <notehead>normal</notehead>
   </note>
   <note>
    <pitch>
     <step>E</step>
     <octave>2</octave>
    </pitch>
    <duration>1</duration>
    <voice>1</voice>
    <type>quarter</type>
    <stem>up</stem>
    <notehead>normal</notehead>
   </note>
   <note>
    <pitch>
     <step>F</step>
     <octave>2</octave>
    </pitch>
    <duration>1</duration>
    <voice>1</voice>
    <type>quarter</type>
    <stem>up</stem>
    <notehead>normal</notehead>
   </note>
  </measure>
  <measure number="43">
   <note>
    <pitch>
     <step>B</step>
     <octave>2</octave>
    </pitch>
    <duration>2</duration>
    <voice>1</voice>
    <type>half</type>
    <stem>up</stem>
    <notehead>normal</notehead>
   </note>
   <note>
    <rest/>
    <duration>1</duration>
    <voice>1</voice>
    <type>quarter</type>
   </note>
  </measure>
  <measure number="44">
   <note>
    <pitch>
     <step>A</step>
     <octave>2</octave>
    </pitch>
    <duration>2</duration>
    <voice>1</voice>
    <type>half</type>
    <stem>up</stem>
    <notehead>normal</notehead>
   </note>
   <note>
    <rest/>
    <duration>1</duration>
    <voice>1</voice>
    <type>quarter</type>
   </note>
  </measure>
  <measure number="45">
   <note>
    <pitch>
     <step>E</step>
     <octave>2</octave>
    </pitch>
    <duration>1</duration>
    <voice>1</voice>
    <type>quarter</type>
    <stem>up</stem>
    <notehead>normal</notehead>
   </note>
   <note>
    <pitch>
     <step>E</step>
     <octave>2</octave>
    </pitch>
    <duration>1</duration>
    <voice>1</voice>
    <type>quarter</type>
    <stem>up</stem>
    <notehead>normal</notehead>
   </note>
   <note>
    <pitch>
     <step>F</step>
     <octave>2</octave>
    </pitch>
    <duration>1</duration>
    <voice>1</voice>
    <type>quarter</type>
    <accidental>natural</accidental>
    <stem>up</stem>
    <notehead>normal</notehead>
   </note>
  </measure>
  <measure number="46">
   <print new-system="yes"/>
   <note>
    <pitch>
     <step>F</step>
     <alter>1</alter>
     <octave>2</octave>
    </pitch>
    <duration>1</duration>
    <voice>1</voice>
    <type>quarter</type>
    <stem>up</stem>
    <notehead>normal</notehead>
   </note>
   <note>
    <rest/>
    <duration>1</duration>
    <voice>1</voice>
    <type>quarter</type>
   </note>
   <note>
    <pitch>
     <step>F</step>
     <octave>2</octave>
    </pitch>
    <duration>1</duration>
    <voice>1</voice>
    <type>quarter</type>
    <accidental>natural</accidental>
    <stem>up</stem>
    <notehead>normal</notehead>
   </note>
  </measure>
  <measure number="47">
   <note>
    <pitch>
     <step>F</step>
     <alter>1</alter>
     <octave>2</octave>
    </pitch>
    <duration>1</duration>
    <voice>1</voice>
    <type>quarter</type>
    <stem>up</stem>
    <notehead>normal</notehead>
   </note>
   <note>
    <pitch>
     <step>A</step>
     <octave>2</octave>
    </pitch>
    <duration>1</duration>
    <voice>1</voice>
    <type>quarter</type>
    <stem>up</stem>
    <notehead>normal</notehead>
   </note>
   <note>
    <pitch>
     <step>A</step>
     <alter>1</alter>
     <octave>2</octave>
    </pitch>
    <duration>1</duration>
    <voice>1</voice>
    <type>quarter</type>
    <accidental>sharp</accidental>
    <stem>up</stem>
    <notehead>normal</notehead>
   </note>
  </measure>
  <measure number="48">
   <note>
    <pitch>
     <step>B</step>
     <octave>2</octave>
    </pitch>
    <duration>1</duration>
    <voice>1</voice>
    <type>quarter</type>
    <stem>up</stem>
    <notehead>normal</notehead>
   </note>
   <note>
    <rest/>
    <duration>1</duration>
    <voice>1</voice>
    <type>quarter</type>
   </note>
   <note>
    <pitch>
     <step>A</step>
     <alter>1</alter>
     <octave>2</octave>
    </pitch>
    <duration>1</duration>
    <voice>1</voice>
    <type>quarter</type>
    <accidental>sharp</accidental>
    <stem>up</stem>
    <notehead>normal</notehead>
   </note>
  </measure>
  <measure number="49">
   <note>
    <pitch>
     <step>B</step>
     <octave>2</octave>
    </pitch>
    <duration>1</duration>
    <voice>1</voice>
    <type>quarter</type>
    <stem>up</stem>
    <notehead>normal</notehead>
   </note>
   <note>
    <pitch>
     <step>B</step>
     <octave>2</octave>
    </pitch>
    <duration>1</duration>
    <voice>1</voice>
    <type>quarter</type>
    <stem>up</stem>
    <notehead>normal</notehead>
    <notations>
     <slur type="start"/>
     <slide number="2" type="start"/>
    </notations>
   </note>
   <note>
    <pitch>
     <step>A</step>
     <octave>2</octave>
    </pitch>
    <duration>1</duration>
    <voice>1</voice>
    <type>quarter</type>
    <stem>up</stem>
    <notehead>normal</notehead>
    <notations>
     <slur type="stop"/>
     <slide number="2" type="stop"/>
    </notations>
   </note>
  </measure>
  <measure number="50">
   <note>
    <pitch>
     <step>D</step>
     <octave>3</octave>
    </pitch>
    <duration>2</duration>
    <voice>1</voice>
    <type>half</type>
    <stem>down</stem>
    <notehead>normal</notehead>
   </note>
   <note>
    <pitch>
     <step>D</step>
     <octave>3</octave>
    </pitch>
    <duration>1</duration>
    <voice>1</voice>
    <type>quarter</type>
    <stem>down</stem>
    <notehead>normal</notehead>
   </note>
  </measure>
  <measure number="51">
   <note>
    <pitch>
     <step>G</step>
     <alter>1</alter>
     <octave>2</octave>
    </pitch>
    <duration>2</duration>
    <voice>1</voice>
    <type>half</type>
    <stem>up</stem>
    <notehead>normal</notehead>
   </note>
   <note>
    <pitch>
     <step>G</step>
     <alter>1</alter>
     <octave>2</octave>
    </pitch>
    <duration>1</duration>
    <voice>1</voice>
    <type>quarter</type>
    <stem>up</stem>
    <notehead>normal</notehead>
   </note>
  </measure>
  <measure number="52">
   <note>
    <pitch>
     <step>A</step>
     <octave>2</octave>
    </pitch>
    <duration>1</duration>
    <voice>1</voice>
    <type>quarter</type>
    <stem>up</stem>
    <notehead>normal</notehead>
    <notations>
     <slur type="start"/>
     <slide number="1" type="start"/>
    </notations>
   </note>
   <note>
    <pitch>
     <step>G</step>
     <alter>1</alter>
     <octave>2</octave>
    </pitch>
    <duration>1</duration>
    <voice>1</voice>
    <type>quarter</type>
    <stem>up</stem>
    <notehead>normal</notehead>
    <notations>
     <slur type="stop"/>
     <slide number="1" type="stop"/>
    </notations>
   </note>
   <note>
    <pitch>
     <step>A</step>
     <octave>2</octave>
    </pitch>
    <duration>1</duration>
    <tie type="start"/>
    <voice>1</voice>
    <type>quarter</type>
    <stem>up</stem>
    <notehead>normal</notehead>
    <notations>
     <tied type="start"/>
    </notations>
   </note>
  </measure>
  <measure number="53">
   <attributes>
    <divisions>4</divisions>
   </attributes>
   <note>
    <grace slash="no"/>
    <pitch>
     <step>A</step>
     <octave>2</octave>
    </pitch>
    <tie type="stop"/>
    <voice>1</voice>
    <type>16th</type>
    <stem>up</stem>
    <notehead>normal</notehead>
    <notations>
     <tied type="stop"/>
     <slur type="start"/>
     <slide number="1" type="start"/>
    </notations>
   </note>
   <note>
    <pitch>
     <step>G</step>
     <alter>1</alter>
     <octave>3</octave>
    </pitch>
    <duration>3</duration>
    <voice>1</voice>
    <type>quarter</type>
    <stem>down</stem>
    <notehead>normal</notehead>
    <notations>
     <articulations>
      <staccato/>
     </articulations>
     <slur type="stop"/>
     <slide number="1" type="stop"/>
    </notations>
   </note>
   <note>
    <pitch>
     <step>G</step>
     <alter>1</alter>
     <octave>2</octave>
    </pitch>
    <duration>4</duration>
    <voice>1</voice>
    <type>quarter</type>
    <stem>up</stem>
    <notehead>normal</notehead>
    <notations>
     <slur type="start"/>
     <slide number="1" type="start"/>
    </notations>
   </note>
   <note>
    <pitch>
     <step>G</step>
     <octave>2</octave>
    </pitch>
    <duration>4</duration>
    <voice>1</voice>
    <type>quarter</type>
    <accidental>natural</accidental>
    <stem>up</stem>
    <notehead>normal</notehead>
    <notations>
     <slur type="stop"/>
     <slide number="1" type="stop"/>
    </notations>
   </note>
  </measure>
  <measure number="54">
   <print new-system="yes"/>
   <attributes>
    <divisions>1</divisions>
   </attributes>
   <note>
    <pitch>
     <step>A</step>
     <octave>2</octave>
    </pitch>
    <duration>2</duration>
    <voice>1</voice>
    <type>half</type>
    <stem>up</stem>
    <notehead>normal</notehead>
   </note>
   <note>
    <rest/>
    <duration>1</duration>
    <voice>1</voice>
    <type>quarter</type>
   </note>
  </measure>
  <measure number="55">
   <note>
    <pitch>
     <step>E</step>
     <octave>2</octave>
    </pitch>
    <duration>1</duration>
    <voice>1</voice>
    <type>quarter</type>
    <stem>up</stem>
    <notehead>normal</notehead>
   </note>
   <note>
    <rest/>
    <duration>2</duration>
    <voice>1</voice>
    <type>half</type>
   </note>
  </measure>
  <measure number="56">
   <note>
    <pitch>
     <step>B</step>
     <octave>2</octave>
    </pitch>
    <duration>2</duration>
    <voice>1</voice>
    <type>half</type>
    <stem>up</stem>
    <notehead>normal</notehead>
   </note>
   <note>
    <rest/>
    <duration>1</duration>
    <voice>1</voice>
    <type>quarter</type>
   </note>
  </measure>
  <measure number="57">
   <note>
    <pitch>
     <step>G</step>
     <alter>1</alter>
     <octave>2</octave>
    </pitch>
    <duration>1</duration>
    <voice>1</voice>
    <type>quarter</type>
    <stem>up</stem>
    <notehead>normal</notehead>
   </note>
   <note>
    <rest/>
    <duration>2</duration>
    <voice>1</voice>
    <type>half</type>
   </note>
  </measure>
  <measure number="58">
   <note>
    <pitch>
     <step>G</step>
     <octave>2</octave>
    </pitch>
    <duration>1</duration>
    <voice>1</voice>
    <type>quarter</type>
    <accidental>natural</accidental>
    <stem>up</stem>
    <notehead>normal</notehead>
   </note>
   <note>
    <pitch>
     <step>F</step>
     <alter>1</alter>
     <octave>2</octave>
    </pitch>
    <duration>1</duration>
    <voice>1</voice>
    <type>quarter</type>
    <stem>up</stem>
    <notehead>normal</notehead>
    <notations>
     <slur type="start"/>
     <slide number="1" type="start"/>
    </notations>
   </note>
   <note>
    <pitch>
     <step>F</step>
     <octave>2</octave>
    </pitch>
    <duration>1</duration>
    <voice>1</voice>
    <type>quarter</type>
    <accidental>natural</accidental>
    <stem>up</stem>
    <notehead>normal</notehead>
    <notations>
     <slur type="stop"/>
     <slide number="1" type="stop"/>
    </notations>
   </note>
  </measure>
  <measure number="59">
   <note>
    <pitch>
     <step>E</step>
     <octave>2</octave>
    </pitch>
    <duration>1</duration>
    <voice>1</voice>
    <type>quarter</type>
    <stem>up</stem>
    <notehead>normal</notehead>
   </note>
   <note>
    <pitch>
     <step>A</step>
     <octave>2</octave>
    </pitch>
    <duration>1</duration>
    <voice>1</voice>
    <type>quarter</type>
    <stem>up</stem>
    <notehead>normal</notehead>
   </note>
   <note>
    <pitch>
     <step>C</step>
     <alter>1</alter>
     <octave>3</octave>
    </pitch>
    <duration>1</duration>
    <voice>1</voice>
    <type>quarter</type>
    <stem>up</stem>
    <notehead>normal</notehead>
   </note>
  </measure>
  <measure number="60">
   <note>
    <pitch>
     <step>D</step>
     <octave>3</octave>
    </pitch>
    <duration>2</duration>
    <voice>1</voice>
    <type>half</type>
    <stem>down</stem>
    <notehead>normal</notehead>
   </note>
   <note>
    <rest/>
    <duration>1</duration>
    <voice>1</voice>
    <type>quarter</type>
   </note>
  </measure>
  <measure number="61">
   <note>
    <pitch>
     <step>A</step>
     <octave>2</octave>
    </pitch>
    <duration>2</duration>
    <voice>1</voice>
    <type>half</type>
    <stem>up</stem>
    <notehead>normal</notehead>
   </note>
   <note>
    <rest/>
    <duration>1</duration>
    <voice>1</voice>
    <type>quarter</type>
   </note>
  </measure>
  <measure number="62">
   <print new-system="yes"/>
   <note>
    <pitch>
     <step>D</step>
     <octave>3</octave>
    </pitch>
    <duration>2</duration>
    <voice>1</voice>
    <type>half</type>
    <stem>down</stem>
    <notehead>normal</notehead>
   </note>
   <note>
    <rest/>
    <duration>1</duration>
    <voice>1</voice>
    <type>quarter</type>
   </note>
  </measure>
  <measure number="63">
   <note>
    <pitch>
     <step>F</step>
     <octave>2</octave>
    </pitch>
    <duration>2</duration>
    <voice>1</voice>
    <type>half</type>
    <accidental>natural</accidental>
    <stem>up</stem>
    <notehead>normal</notehead>
   </note>
   <note>
    <rest/>
    <duration>1</duration>
    <voice>1</voice>
    <type>quarter</type>
   </note>
  </measure>
  <measure number="64">
   <note>
    <pitch>
     <step>C</step>
     <alter>1</alter>
     <octave>3</octave>
    </pitch>
    <duration>2</duration>
    <voice>1</voice>
    <type>half</type>
    <stem>up</stem>
    <notehead>normal</notehead>
   </note>
   <note>
    <rest/>
    <duration>1</duration>
    <voice>1</voice>
    <type>quarter</type>
   </note>
  </measure>
  <measure number="65">
   <note>
    <pitch>
     <step>F</step>
     <alter>1</alter>
     <octave>2</octave>
    </pitch>
    <duration>2</duration>
    <voice>1</voice>
    <type>half</type>
    <stem>up</stem>
    <notehead>normal</notehead>
   </note>
   <note>
    <rest/>
    <duration>1</duration>
    <voice>1</voice>
    <type>quarter</type>
   </note>
  </measure>
  <measure number="66">
   <note>
    <pitch>
     <step>B</step>
     <octave>2</octave>
    </pitch>
    <duration>2</duration>
    <voice>1</voice>
    <type>half</type>
    <stem>up</stem>
    <notehead>normal</notehead>
   </note>
   <note>
    <rest/>
    <duration>1</duration>
    <voice>1</voice>
    <type>quarter</type>
   </note>
  </measure>
  <measure number="67">
   <note>
    <pitch>
     <step>E</step>
     <octave>2</octave>
    </pitch>
    <duration>2</duration>
    <voice>1</voice>
    <type>half</type>
    <stem>up</stem>
    <notehead>normal</notehead>
   </note>
   <note>
    <rest/>
    <duration>1</duration>
    <voice>1</voice>
    <type>quarter</type>
   </note>
  </measure>
  <measure number="68">
   <note>
    <pitch>
     <step>A</step>
     <octave>2</octave>
    </pitch>
    <duration>2</duration>
    <voice>1</voice>
    <type>half</type>
    <stem>up</stem>
    <notehead>normal</notehead>
   </note>
   <note>
    <pitch>
     <step>E</step>
     <octave>3</octave>
    </pitch>
    <duration>1</duration>
    <voice>1</voice>
    <type>quarter</type>
    <stem>down</stem>
    <notehead>normal</notehead>
   </note>
  </measure>
  <measure number="69">
   <note>
    <pitch>
     <step>A</step>
     <octave>3</octave>
    </pitch>
    <duration>1</duration>
    <voice>1</voice>
    <type>quarter</type>
    <stem>down</stem>
    <notehead>normal</notehead>
   </note>
   <note>
    <rest/>
    <duration>2</duration>
    <voice>1</voice>
    <type>half</type>
   </note>
  </measure>
 </part>
</score-partwise>
